<svg width="41" height="41" viewBox="0 0 41 41" fill="none" xmlns="http://www.w3.org/2000/svg">
<rect width="41" height="41" fill="transparent"/>
<g clip-path="url(#clip0_184_236)">
<path fill-rule="evenodd" clip-rule="evenodd" d="M30.3086 9.58435H27.0799C26.4504 9.58895 25.9674 10.049 25.9629 10.675C25.9583 11.7703 25.9583 12.861 25.9629 13.9563C25.9675 14.5778 26.4505 15.0436 27.0719 15.0436H30.2994C30.9472 15.0436 31.421 14.5732 31.421 13.9254C31.4256 12.8518 31.4256 11.7749 31.421 10.7024C31.421 10.0582 30.9472 9.58904 30.3086 9.58435Z" fill="black"/>
<path fill-rule="evenodd" clip-rule="evenodd" d="M20.5083 25.961C23.5264 25.9564 25.963 23.5151 25.963 20.4972C25.9584 17.4791 23.5173 15.0436 20.4992 15.0436C17.4915 15.0436 15.0503 17.4882 15.0457 20.4926C15.0411 23.5151 17.4868 25.961 20.5083 25.961Z" fill="black"/>
<path fill-rule="evenodd" clip-rule="evenodd" d="M28.6766 23.5816C28.0242 25.3028 26.9335 26.6843 25.417 27.7223C22.6817 29.5902 19.1052 29.747 16.2302 28.124C14.7767 27.3011 13.6368 26.1612 12.8414 24.6905C11.7507 22.6784 11.5 20.5509 12.0505 18.3294H9.58643V30.2699C9.58643 30.9543 10.0522 31.419 10.7355 31.419C11.1738 31.4236 11.6076 31.419 12.046 31.419H30.2365C30.9746 31.419 31.421 30.9681 31.421 30.2298V18.3248H28.9536C29.4056 20.1125 29.3243 21.8648 28.6766 23.5816Z" fill="black"/>
<path fill-rule="evenodd" clip-rule="evenodd" d="M0 0V41H41V0H0ZM34.6896 9.54435V31.4637C34.6896 33.0774 33.4421 34.4817 31.8375 34.6694C31.7117 34.6831 31.5869 34.6923 31.4621 34.6923H9.54174C7.95544 34.6923 6.56027 33.4711 6.34977 31.902C6.32346 31.7189 6.30968 31.5312 6.30968 31.3481V9.63815C6.30968 8.00158 7.40496 6.6693 9.01405 6.36149C9.20635 6.3249 9.40783 6.31229 9.60463 6.31229C16.8733 6.30769 24.1385 6.30769 31.4037 6.30769C33.1068 6.30769 34.5065 7.57238 34.6804 9.26285C34.6942 9.35665 34.6896 9.45045 34.6896 9.54435Z" fill="black"/>
</g>
<defs>
<clipPath id="clip0_184_236">
<rect width="41" height="41" fill="white"/>
</clipPath>
</defs>
</svg>
