<svg width="41" height="41" viewBox="0 0 41 41" fill="none" xmlns="http://www.w3.org/2000/svg">
<g clip-path="url(#clip0_184_244)">
<rect width="41" height="41" fill="transparent"/>
<path fill-rule="evenodd" clip-rule="evenodd" d="M22.2032 18.4139V18.354C22.1909 18.3741 22.174 18.3942 22.1633 18.4139H22.2032Z" fill="black"/>
<path fill-rule="evenodd" clip-rule="evenodd" d="M0 0V41H41V0H0ZM12.7525 34.0617H6.66957V15.7608H12.7525V34.0617ZM9.71105 13.2629H9.67086C7.63033 13.2629 6.30769 11.8571 6.30769 10.1C6.30769 8.30426 7.66898 6.93828 9.75088 6.93828C11.8332 6.93828 13.1129 8.30426 13.1527 10.1C13.1527 11.8571 11.8332 13.2629 9.71105 13.2629ZM34.6923 34.0617H28.6077V24.2706C28.6077 21.8115 27.7286 20.1328 25.5264 20.1328C23.8446 20.1328 22.8452 21.2631 22.4049 22.3579C22.2449 22.749 22.2031 23.2926 22.2031 23.841V34.0618H16.1173C16.1173 34.0618 16.1989 17.4777 16.1173 15.7609H22.2031V18.3541C23.0116 17.11 24.4546 15.3312 27.6868 15.3312C31.691 15.3312 34.6923 17.9462 34.6923 23.5671V34.0617Z" fill="black"/>
</g>
<defs>
<clipPath id="clip0_184_244">
<rect width="41" height="41" fill="transparent"/>
</clipPath>
</defs>
</svg>
